<?xml version="1.0" encoding="UTF-8"?>
<svg width="16.013mm" height="16.013mm" version="1.1" viewBox="0 0 16.013 16.013" xmlns="http://www.w3.org/2000/svg" xmlns:cc="http://creativecommons.org/ns#" xmlns:dc="http://purl.org/dc/elements/1.1/" xmlns:rdf="http://www.w3.org/1999/02/22-rdf-syntax-ns#">
 <metadata>
  <rdf:RDF>
   <cc:Work rdf:about="">
    <dc:format>image/svg+xml</dc:format>
    <dc:type rdf:resource="http://purl.org/dc/dcmitype/StillImage"/>
    <dc:title/>
   </cc:Work>
  </rdf:RDF>
 </metadata>
 <g transform="translate(-74.325 -132.69)">
  <rect x="47.05" y="166.05" width="1.3824" height="1.3824" ry=".69122"/>
  <circle cx="43.31" cy="171.17" r="3.4584" fill="none" stroke="#000" stroke-linecap="round"/>
  <rect x="35.803" y="163.66" width="15.013" height="15.013" ry="4.0324" fill="none" stroke="#000" stroke-linecap="round" stroke-linejoin="round"/>
 </g>
 <g transform="matrix(.85961 0 0 .85961 -63.902 -110.05)" stroke-width="1.1633">
  <g transform="translate(0 79.375)" fill="none" stroke="#000" stroke-width="1.1633">
   <path d="m33.567 127.78v-12.275h5.0657c2.1558 0.0489 2.8441 1.4676 2.8413 3.2287 0.02832 1.7378-0.6902 2.925-2.4988 2.8863h-5.4301 5.479c2.0529-0.0572 2.8117 0.73709 2.8618 2.8618-0.01165 1.9569-0.91819 3.2454-3.2532 3.2532z"/>
   <path d="m43.645 122.7h9.6871c-0.07813-3.125-1.6546-4.6546-4.8082-4.8082-2.963 0.10032-4.7106 1.893-4.8851 4.8851-0.0081 3.0461 2.3378 4.9594 4.962 4.962 1.9818 0.0505 3.1018-0.63172 4.1034-2.2694"/>
   <path d="m45.223 115.46h6.5374"/>
  </g>
 </g>
 <g transform="translate(-2.3155 -83.26)">
  <path d="m37.645 123.19v8.2146" fill="none" stroke="#000"/>
  <rect x="36.995" y="120.91" width="1.3" height="1.3" ry=".65" stroke-linecap="round" stroke-width="1.0948"/>
  <g transform="matrix(.75045 0 0 .75045 -8.8308 35.034)" fill="none" stroke="#000" stroke-width="1.3325">
   <path d="m64.576 128.07v-6.0647c0.06691-2.7931 1.1912-3.9911 4.0609-4.0609 2.9835 0.0284 4.0951 1.4453 4.1277 4.1277v6.2248"/>
   <path d="m64.576 128.3v-10.737"/>
  </g>
  <rect x="34.188" y="118.91" width="15.013" height="15.013" ry="2.6961" fill="none" stroke="#000" stroke-linecap="round" stroke-linejoin="round"/>
 </g>
 <g transform="matrix(1.1492 0 0 1.1492 39.842 -10.063)" stroke-width=".87021">
  <g transform="matrix(.50831 0 0 .50831 -96.247 -85.501)" fill="none" stroke="#000" stroke-width="1.712">
   <path d="m135.65 211.85c-1.4099 0.0383-4.3562-0.72466-4.3562-0.72466l0.15927-3.1822c0.0199-1.0491-0.0103-1.1155 0.0803-2.2892 0 0 0.14341-0.90863 0.3226-1.2904 0.17918-0.38173 0.70969-0.96777 0.70969-0.96777s-1.5661-0.0537-2.5807-0.45162c-1.0146-0.39794-2.4907-1.2022-3.2904-2.1291-0.79969-0.92696-1.1474-1.962-1.4194-3.1184-0.27199-1.1564-0.34743-2.0081-0.12904-3.699 0.2184-1.691 1.6345-3.1829 1.6345-3.1829s-0.42753-1.6738-0.39365-2.4194c0.0339-0.74561 0.50563-1.963 0.50563-1.963s1.7082 0.22758 2.4795 0.52354 2.0968 1.2136 2.0968 1.2136 1.4194-0.37402 2.4839-0.46182c1.0646-0.0878 2.8974-0.0129 3.8818 0.0747 0.9844 0.0876 2.0216 0.32259 2.0216 0.32259s1.3115-0.94117 2.0646-1.2258 2.3872-0.45163 2.3872-0.45163 0.41752 1.2108 0.47554 1.7743c0.058 0.56344-0.0251 1.1086-0.0884 1.5592-0.0634 0.45063-0.25808 1.1398-0.25808 1.1398s1.0586 1.2488 1.3549 2.0431c0.29626 0.79425 0.37812 1.5214 0.33756 2.613-0.0406 1.0916-0.35846 2.8526-0.78918 3.8388s-0.9818 1.5819-1.4763 2.0646c-0.49451 0.48265-0.68218 0.57736-1.3302 0.90325s-1.9324 0.75422-2.5915 0.90326c-0.65905 0.14903-1.302 0.14301-1.302 0.14301s0.6319 0.62098 0.82884 1.0183 0.20852 1.3871 0.20852 1.3871l0.13145 5.3022s-2.7491 0.69438-4.159 0.73267z" stroke-linejoin="round"/>
   <path d="m123.56 202.68s1.564 0.67993 2.1884 1.2693 0.84398 1.6512 1.4444 2.1884 1.215 0.87576 1.9696 1.0067 2.0571-0.21884 2.0571-0.21884" stroke-linecap="round"/>
  </g>
 </g>
 <g transform="matrix(.46578 0 0 .46578 -9.1566 1.2402)" fill="none" stroke="#000" stroke-linecap="round" stroke-width="2.147">
  <circle cx="-40.617" cy="190.69" r="16.69" stroke-linejoin="round"/>
  <g>
   <path d="m-50.838 185.21c8.0335-2.0948 14.959-0.76432 21.365 2.1699"/>
   <path d="m-49.67 190.66c7.1232-1.822 12.922-0.71053 17.971 2.0586"/>
   <path d="m-49.169 196.1c5.8106-1.4284 11.011-0.79708 15.634 1.7804"/>
  </g>
 </g>
</svg>
