<?xml version="1.0" encoding="UTF-8" standalone="no"?>
<svg
   xmlns:dc="http://purl.org/dc/elements/1.1/"
   xmlns:cc="http://creativecommons.org/ns#"
   xmlns:rdf="http://www.w3.org/1999/02/22-rdf-syntax-ns#"
   xmlns:svg="http://www.w3.org/2000/svg"
   xmlns="http://www.w3.org/2000/svg"
   xmlns:sodipodi="http://sodipodi.sourceforge.net/DTD/sodipodi-0.dtd"
   xmlns:inkscape="http://www.inkscape.org/namespaces/inkscape"
   inkscape:version="1.0beta2 (2b71d25, 2019-12-03)"
   sodipodi:docname="spotify.svg"
   id="svg8"
   version="1.1"
   viewBox="0 0 16.547001 16.547001"
   height="16.547001mm"
   width="16.547001mm">
  <defs
     id="defs2">
    <marker
       inkscape:isstock="true"
       style="overflow:visible"
       id="Arrow1Lend"
       refX="0"
       refY="0"
       orient="auto"
       inkscape:stockid="Arrow1Lend">
      <path
         inkscape:connector-curvature="0"
         transform="matrix(-0.8,0,0,-0.8,-10,0)"
         style="fill-rule:evenodd;stroke:#000000;stroke-width:1pt"
         d="M 0,0 5,-5 -12.5,0 5,5 Z"
         id="path1069" />
    </marker>
    <marker
       inkscape:isstock="true"
       style="overflow:visible"
       id="marker1438"
       refX="0"
       refY="0"
       orient="auto"
       inkscape:stockid="Arrow1Lstart">
      <path
         inkscape:connector-curvature="0"
         transform="matrix(0.8,0,0,0.8,10,0)"
         style="fill-rule:evenodd;stroke:#000000;stroke-width:1pt"
         d="M 0,0 5,-5 -12.5,0 5,5 Z"
         id="path1436" />
    </marker>
    <marker
       inkscape:isstock="true"
       style="overflow:visible"
       id="marker1404"
       refX="0"
       refY="0"
       orient="auto"
       inkscape:stockid="Arrow1Lstart">
      <path
         inkscape:connector-curvature="0"
         transform="matrix(0.8,0,0,0.8,10,0)"
         style="fill-rule:evenodd;stroke:#000000;stroke-width:1pt"
         d="M 0,0 5,-5 -12.5,0 5,5 Z"
         id="path1402" />
    </marker>
    <marker
       inkscape:isstock="true"
       style="overflow:visible"
       id="marker1376"
       refX="0"
       refY="0"
       orient="auto"
       inkscape:stockid="Arrow1Lstart">
      <path
         inkscape:connector-curvature="0"
         transform="matrix(0.8,0,0,0.8,10,0)"
         style="fill-rule:evenodd;stroke:#000000;stroke-width:1pt"
         d="M 0,0 5,-5 -12.5,0 5,5 Z"
         id="path1374" />
    </marker>
    <marker
       inkscape:isstock="true"
       style="overflow:visible"
       id="marker1354"
       refX="0"
       refY="0"
       orient="auto"
       inkscape:stockid="Arrow1Lstart">
      <path
         inkscape:connector-curvature="0"
         transform="matrix(0.8,0,0,0.8,10,0)"
         style="fill-rule:evenodd;stroke:#000000;stroke-width:1pt"
         d="M 0,0 5,-5 -12.5,0 5,5 Z"
         id="path1352" />
    </marker>
    <marker
       inkscape:isstock="true"
       style="overflow:visible"
       id="marker1338"
       refX="0"
       refY="0"
       orient="auto"
       inkscape:stockid="Arrow1Lstart">
      <path
         inkscape:connector-curvature="0"
         transform="matrix(0.8,0,0,0.8,10,0)"
         style="fill-rule:evenodd;stroke:#000000;stroke-width:1pt"
         d="M 0,0 5,-5 -12.5,0 5,5 Z"
         id="path1336" />
    </marker>
    <marker
       inkscape:isstock="true"
       style="overflow:visible"
       id="Arrow1Lstart"
       refX="0"
       refY="0"
       orient="auto"
       inkscape:stockid="Arrow1Lstart">
      <path
         inkscape:connector-curvature="0"
         transform="matrix(0.8,0,0,0.8,10,0)"
         style="fill-rule:evenodd;stroke:#000000;stroke-width:1pt"
         d="M 0,0 5,-5 -12.5,0 5,5 Z"
         id="path1066" />
    </marker>
  </defs>
  <sodipodi:namedview
     inkscape:window-maximized="0"
     inkscape:window-y="23"
     inkscape:window-x="0"
     inkscape:window-height="880"
     inkscape:window-width="1600"
     inkscape:snap-global="false"
     showgrid="false"
     inkscape:document-rotation="0"
     inkscape:current-layer="layer1"
     inkscape:document-units="mm"
     inkscape:cy="28.60552"
     inkscape:cx="-33.644603"
     inkscape:zoom="0.7"
     inkscape:pageshadow="2"
     inkscape:pageopacity="0.0"
     borderopacity="1.0"
     bordercolor="#666666"
     pagecolor="#ffffff"
     id="base" />
  <metadata
     id="metadata5">
    <rdf:RDF>
      <cc:Work
         rdf:about="">
        <dc:format>image/svg+xml</dc:format>
        <dc:type
           rdf:resource="http://purl.org/dc/dcmitype/StillImage" />
        <dc:title></dc:title>
      </cc:Work>
    </rdf:RDF>
  </metadata>
  <g
     id="layer1"
     inkscape:groupmode="layer"
     inkscape:label="Layer 1">
    <g
       transform="translate(-70.291885,-131.55033)"
       id="g1489">
      <rect
         y="166.04768"
         x="47.049683"
         height="1.3824414"
         width="1.3824414"
         id="rect835-9"
         style="fill:#000000;fill-opacity:1;stroke:none;stroke-width:1.03683;stroke-linecap:round;stroke-miterlimit:4;stroke-dasharray:none;stroke-opacity:1"
         ry="0.6912207" />
      <circle
         style="fill:none;fill-opacity:0.522267;stroke:#000000;stroke-width:1;stroke-linecap:round;stroke-miterlimit:4;stroke-dasharray:none;stroke-opacity:1"
         id="path855"
         cx="43.309711"
         cy="171.17012"
         r="3.4583931" />
      <rect
         style="fill:none;fill-opacity:1;stroke:#000000;stroke-width:1;stroke-linecap:round;stroke-linejoin:round;stroke-miterlimit:4;stroke-dasharray:none;stroke-opacity:1"
         id="rect910"
         width="15.012709"
         height="15.012688"
         x="35.803356"
         y="163.66377"
         ry="4.0324211" />
    </g>
    <g
       style="stroke-width:1.16332;stroke-miterlimit:4;stroke-dasharray:none"
       transform="matrix(0.85961123,0,0,0.85961123,-64.046245,-109.04644)"
       id="g1496">
      <g
         style="stroke-width:1.16332;stroke-miterlimit:4;stroke-dasharray:none"
         id="g993"
         transform="translate(0,79.375004)">
        <path
           sodipodi:nodetypes="cccccccccc"
           inkscape:connector-curvature="0"
           id="path937"
           d="m 33.567104,127.78076 v -12.27523 h 5.065691 c 2.1558,0.0489 2.844116,1.4676 2.841279,3.22871 0.02832,1.73784 -0.690198,2.92504 -2.498842,2.88626 h -5.430096 5.479017 c 2.052856,-0.0572 2.811738,0.73709 2.861806,2.86181 -0.01165,1.95691 -0.91819,3.24538 -3.253164,3.25316 z"
           style="fill:none;stroke:#000000;stroke-width:1.16332;stroke-linecap:butt;stroke-linejoin:miter;stroke-miterlimit:4;stroke-dasharray:none;stroke-opacity:1" />
        <g
           style="stroke-width:1.16332;stroke-miterlimit:4;stroke-dasharray:none"
           id="g945">
          <path
             style="fill:none;stroke:#000000;stroke-width:1.16332;stroke-linecap:butt;stroke-linejoin:miter;stroke-miterlimit:4;stroke-dasharray:none;stroke-opacity:1"
             d="m 43.645355,122.70211 h 9.687097 c -0.07813,-3.12495 -1.65465,-4.6546 -4.808176,-4.80817 -2.96301,0.10032 -4.710626,1.89305 -4.885107,4.8851 -0.0081,3.04613 2.337791,4.95936 4.962037,4.96203 1.981795,0.0505 3.101849,-0.63172 4.103426,-2.26945"
             id="path939"
             inkscape:connector-curvature="0"
             sodipodi:nodetypes="cccccc" />
          <path
             style="fill:none;stroke:#000000;stroke-width:1.16332;stroke-linecap:butt;stroke-linejoin:miter;stroke-miterlimit:4;stroke-dasharray:none;stroke-opacity:1"
             d="m 45.223449,115.46043 h 6.53736"
             id="path941"
             inkscape:connector-curvature="0"
             sodipodi:nodetypes="cc" />
        </g>
      </g>
    </g>
    <g
       transform="translate(-68.955535,-138.71289)"
       id="g1042">
      <path
         style="fill:none;stroke:#000000;stroke-width:1;stroke-linecap:butt;stroke-linejoin:miter;stroke-miterlimit:4;stroke-dasharray:none;stroke-opacity:1"
         d="m 37.645406,123.18796 v 8.21463"
         id="path833"
         inkscape:connector-curvature="0"
         sodipodi:nodetypes="cc" />
      <rect
         style="fill:#000000;fill-opacity:1;stroke-width:1.0948;stroke-linecap:round;stroke-miterlimit:4;stroke-dasharray:none"
         id="rect835"
         width="1.3"
         height="1.3"
         x="36.995407"
         y="120.9052"
         ry="0.64999998" />
      <g
         id="g953"
         transform="matrix(0.75044882,0,0,0.75044882,-8.8308484,35.034051)"
         style="stroke-width:1.33254;stroke-miterlimit:4;stroke-dasharray:none">
        <path
           sodipodi:nodetypes="ccccc"
           inkscape:connector-curvature="0"
           id="path912"
           d="m 64.575594,128.0732 v -6.06466 c 0.06691,-2.79312 1.191235,-3.99111 4.060859,-4.06086 2.983491,0.0284 4.095106,1.44532 4.127675,4.12768 v 6.22476"
           style="fill:none;stroke:#000000;stroke-width:1.33254;stroke-linecap:butt;stroke-linejoin:miter;stroke-miterlimit:4;stroke-dasharray:none;stroke-opacity:1" />
        <path
           sodipodi:nodetypes="cc"
           inkscape:connector-curvature="0"
           id="path914"
           d="M 64.575594,128.30012 V 117.56361"
           style="fill:none;stroke:#000000;stroke-width:1.33254;stroke-linecap:butt;stroke-linejoin:miter;stroke-miterlimit:4;stroke-dasharray:none;stroke-opacity:1" />
      </g>
      <rect
         ry="2.6960773"
         y="118.91214"
         x="34.187691"
         height="15.012688"
         width="15.012709"
         id="rect910-2"
         style="fill:none;fill-opacity:1;stroke:#000000;stroke-width:1;stroke-linecap:round;stroke-linejoin:round;stroke-miterlimit:4;stroke-dasharray:none;stroke-opacity:1" />
    </g>
    <g
       style="stroke-width:1.96731;stroke-miterlimit:4;stroke-dasharray:none"
       transform="matrix(0.50830814,0,0,0.50830814,-96.246855,-85.500942)"
       id="g1058">
      <path
         sodipodi:nodetypes="cczcczczzzzczczczzczczzczzzzzzczcczzccccc"
         inkscape:connector-curvature="0"
         id="path1064"
         d="m 119.1232,195.57533 c 0.0748,11.10092 8.63205,16.1654 11.33025,16.14449 0,0 0.48823,0.007 0.83605,-0.59321 0.34781,-0.59993 0.15927,-3.18223 0.15927,-3.18223 0.0199,-1.04909 -0.0103,-1.11553 0.0803,-2.28924 0,0 0.14341,-0.90863 0.3226,-1.29037 0.17918,-0.38173 0.70969,-0.96777 0.70969,-0.96777 0,0 -1.56611,-0.0537 -2.58072,-0.45162 -1.0146,-0.39794 -2.49074,-1.20215 -3.29042,-2.1291 -0.79969,-0.92696 -1.14742,-1.96201 -1.4194,-3.11838 -0.27199,-1.15636 -0.34743,-2.00806 -0.12904,-3.69903 0.2184,-1.69096 1.63446,-3.1829 1.63446,-3.1829 0,0 -0.42753,-1.67382 -0.39365,-2.41943 0.0339,-0.74561 0.50563,-1.96297 0.50563,-1.96297 0,0 1.70817,0.22758 2.47949,0.52354 0.77132,0.29596 2.09685,1.21362 2.09685,1.21362 0,0 1.41938,-0.37402 2.48394,-0.46182 1.06457,-0.0878 2.89745,-0.0129 3.88184,0.0747 0.9844,0.0876 2.02157,0.32259 2.02157,0.32259 0,0 1.31149,-0.94117 2.06458,-1.22584 0.75309,-0.28467 2.38717,-0.45163 2.38717,-0.45163 0,0 0.41752,1.21081 0.47554,1.77426 0.058,0.56344 -0.0251,1.10855 -0.0884,1.55918 -0.0634,0.45063 -0.25808,1.13982 -0.25808,1.13982 0,0 1.05863,1.24883 1.35488,2.04307 0.29626,0.79425 0.37812,1.52144 0.33756,2.61298 -0.0406,1.09155 -0.35846,2.85258 -0.78918,3.83883 -0.43072,0.98625 -0.9818,1.58193 -1.4763,2.06458 -0.49451,0.48265 -0.68218,0.57736 -1.33024,0.90325 -0.64806,0.32589 -1.93242,0.75422 -2.59148,0.90326 -0.65905,0.14903 -1.30197,0.14301 -1.30197,0.14301 0,0 0.6319,0.62098 0.82884,1.01831 0.19694,0.39733 0.20852,1.38714 0.20852,1.38714 v 5.105 c 0,0 0.0376,0.58336 0.24311,0.66937 0.20551,0.086 0.52802,0.22837 1.03229,0.12904 0.50426,-0.0993 2.09684,-0.85146 2.09684,-0.85146 5.11687,-3.03637 8.81065,-7.35463 9.06102,-14.7746 -0.12781,-9.50845 -7.82977,-16.36107 -16.51286,-16.51103 -9.22724,0.20322 -16.33116,7.24529 -16.47054,15.99259 z"
         style="fill:none;stroke:#000000;stroke-width:1.96731;stroke-linecap:butt;stroke-linejoin:round;stroke-miterlimit:4;stroke-dasharray:none;stroke-opacity:1" />
      <path
         sodipodi:nodetypes="czzzc"
         inkscape:connector-curvature="0"
         id="path1484"
         d="m 123.55746,202.67638 c 0,0 1.56398,0.67993 2.18844,1.2693 0.62446,0.58937 0.84398,1.65117 1.44437,2.18843 0.60039,0.53726 1.21499,0.87576 1.96959,1.00668 0.7546,0.13092 2.05712,-0.21884 2.05712,-0.21884"
         style="fill:none;stroke:#000000;stroke-width:1.96731;stroke-linecap:round;stroke-linejoin:miter;stroke-miterlimit:4;stroke-dasharray:none;stroke-opacity:1" />
    </g>
    <g
       style="stroke-width:2.14695;stroke-miterlimit:4;stroke-dasharray:none"
       transform="matrix(0.46577623,0,0,0.46577623,27.192062,-80.544304)"
       id="g1524">
      <circle
         style="fill:none;fill-opacity:1;stroke:#000000;stroke-width:2.14695;stroke-linecap:round;stroke-linejoin:round;stroke-miterlimit:4;stroke-dasharray:none;stroke-opacity:1"
         id="path1512"
         cx="-40.617275"
         cy="190.68771"
         r="16.689585" />
      <path
         style="fill:none;stroke:#000000;stroke-width:2.14695;stroke-linecap:round;stroke-linejoin:miter;stroke-miterlimit:4;stroke-dasharray:none;stroke-opacity:1"
         d="m -50.837949,185.2092 c 8.033507,-2.09484 14.958812,-0.76432 21.365271,2.16991"
         id="path1514"
         inkscape:connector-curvature="0"
         sodipodi:nodetypes="cc" />
      <path
         style="fill:none;stroke:#000000;stroke-width:2.14695;stroke-linecap:round;stroke-linejoin:miter;stroke-miterlimit:4;stroke-dasharray:none;stroke-opacity:1"
         d="m -49.669535,190.66179 c 7.12319,-1.82203 12.92156,-0.71053 17.971308,2.05864"
         id="path1516"
         inkscape:connector-curvature="0"
         sodipodi:nodetypes="cc" />
      <path
         style="fill:none;stroke:#000000;stroke-width:2.14695;stroke-linecap:round;stroke-linejoin:miter;stroke-miterlimit:4;stroke-dasharray:none;stroke-opacity:1"
         d="m -49.168787,196.09964 c 5.810569,-1.4284 11.010851,-0.79708 15.634482,1.78044"
         id="path1518"
         inkscape:connector-curvature="0"
         sodipodi:nodetypes="cc" />
    </g>
  </g>
</svg>
