<?xml version="1.0" standalone="no"?>
<!DOCTYPE svg PUBLIC "-//W3C//DTD SVG 20010904//EN"
 "http://www.w3.org/TR/2001/REC-SVG-20010904/DTD/svg10.dtd">
<svg version="1.0" xmlns="http://www.w3.org/2000/svg"
 width="256.000000pt" height="256.000000pt" viewBox="0 0 256.000000 256.000000"
 preserveAspectRatio="xMidYMid meet">
<metadata>
Created by potrace 1.11, written by Peter Selinger 2001-2013
</metadata>
<g transform="translate(0.000000,256.000000) scale(0.100000,-0.100000)"
fill="#000000" stroke="none">
<path d="M0 1280 l0 -1280 1280 0 1280 0 0 1280 0 1280 -1280 0 -1280 0 0
-1280z m965 578 c15 -57 34 -125 41 -153 8 -27 37 -133 64 -235 27 -102 57
-210 65 -240 8 -30 26 -98 40 -150 24 -91 38 -145 68 -255 11 -38 19 -51 36
-53 11 -2 23 3 25 10 2 7 27 101 56 208 29 107 58 215 65 240 7 25 36 133 65
240 29 107 70 259 91 337 22 79 39 145 39 148 0 3 86 5 190 5 124 0 190 -4
190 -10 0 -6 -43 -160 -96 -343 -53 -183 -100 -345 -104 -362 -5 -16 -48 -168
-96 -337 l-89 -308 -335 0 -335 0 -34 117 c-19 65 -40 138 -47 163 -7 25 -56
196 -109 380 -54 184 -101 349 -105 365 -4 17 -26 93 -49 170 -22 77 -41 146
-41 153 0 9 44 12 189 12 l189 0 27 -102z"/>
</g>
</svg>
